<svg id="Ebene_1" xmlns="http://www.w3.org/2000/svg" version="1.1" viewBox="0 0 1920 2000">
  <!-- Generator: Adobe Illustrator 29.5.1, SVG Export Plug-In . SVG Version: 2.1.0 Build 141)  -->
  <defs>
    <style>
      .st0 {
        fill: #605751;
      }

      .st1 {
        fill: #7a8369;
      }

      .st2 {
        fill: #fefefe;
      }

      .st3 {
        fill: #bfcab4;
      }
    </style>
  </defs>
  <path class="st3" d="M922.2,25.8c-1.3,5.7,3.1,4.6,6,6.4,67.3,42.6,139.3,93.7,198.3,147.1,46.7,42.2,88,89.5,122.5,142.2,0,92.5,0,185.1,0,277.6-39.5,44.2-93.8,71.5-147.6,94.3-143.1,60.8-297.9,90.2-444.2,141.7-76.8,27-156,51.5-161.7,147.3-5.6,94.3,76.1,141.5,147.6,179.9,122.7,65.8,248,116.8,367.5,191.3,88,54.8,153.7,109.8,229.3,179.6,2.8,2.6,4.7,5.7,9.1,5.6,0,135.7,3.5,274.1,0,409.5l-660.3-2.3c111.2-20.7,227.9-84.9,258-202,39-151.9-93.4-217.6-203.5-277-90.4-48.7-184-91.8-274.6-139.9v-668.9c124-51.9,255.2-82.6,383.5-121.7,49-15,108.7-31.2,153.6-55.4,105.5-56.8,38.1-173.1-15.2-242.6-60.7-79.2-137.8-143.4-208.7-212.8h240.5Z"/>
  <path class="st3" d="M368.5,651.5v-20.5c126-50.3,258.4-80.6,388-119.5,51.4-15.4,168.9-44.6,192.9-94.4,3.9,8.8-4.8,24.9-10.2,31.9-23.1,30.4-107.4,56.8-144.7,68.8-88.8,28.7-180,50.1-269,78.4-52.9,16.8-104.9,36.4-157.1,55.2Z"/>
  <path class="st1" d="M681.6,25.8c70.9,69.5,148,133.7,208.7,212.8,53.3,69.5,120.8,185.8,15.2,242.6-44.9,24.1-104.5,40.4-153.6,55.4-128.3,39.1-259.5,69.8-383.5,121.7v-6.8c52.2-18.8,104.2-38.4,157.1-55.2,88.9-28.3,180.2-49.7,269-78.4,37.3-12,121.6-38.4,144.7-68.8,5.3-7,14.1-23.1,10.2-31.9.7-1.4,1.9-3.6,2.3-4.6l2.3-2.3c1.2-6.1.5-23.6-.3-30.4-12.2-114.6-184.3-261.9-266.4-338.1-4.6-4.3-11.2-9.5-12.4-16h6.8Z"/>
  <path class="st1" d="M588.6,1946.1c-8.1,1.5-12.1-.2-13.6,0,52.4-19.6,109-30.1,157.3-59.6,59-36.1,111.7-112.2,115.2-182.6.2-3.7,1.1-10.3-2.4-12.6,6.1-29.1-15.2-74.8-32.2-98.6-31.2-43.7-105.1-82.9-152.4-108.8-95.8-52.6-196.2-97.1-292-149.8v-6.8c90.7,48.1,184.3,91.2,274.6,139.9,110.1,59.4,242.6,125,203.5,277-30.1,117.1-146.9,181.3-258,202Z"/>
  <path class="st2" d="M368.5,21.2v-2.3h882.7v1936.2h-2.3c0-2.3,0-4.5,0-6.8,3.5-135.4,0-273.8,0-409.5,0-3,0-6.1,0-9.1,0-12.1,0-24.3,0-36.4.1-295,0-590.1,0-885,0-3,0-6.1,0-9.1,0-92.5,0-185.1,0-277.6,0-4.5,0-9.1,0-13.7s0-6.1,0-9.1c-7.9-85.2,10.5-190.2,0-273-.2-1.7,1.1-4.9-1.4-4.6H368.5Z"/>
  <path class="st0" d="M575,1946.1c1.5-.2,5.5,1.5,13.6,0l660.3,2.3c0,2.3,0,4.6,0,6.8H368.5v-4.6h70.3c47.1,0,89.6,1.2,136.2-4.6Z"/>
  <path class="st1" d="M1248.9,608.2c-50.7,52.9-122.6,83.1-190.1,108.6-138.7,52.6-287.5,81-425.5,133.1-75.1,28.4-131.4,53.2-131.1,145,.3,81.8,72.2,123.3,136.1,158.2,200.5,109.3,384.5,175.7,560.6,332.1,16.2,14.3,31,33.4,49.9,44.4,0,3,0,6.1,0,9.1-4.4,0-6.3-3.1-9.1-5.6-75.7-69.8-141.4-124.8-229.3-179.6-119.5-74.4-244.8-125.4-367.5-191.3-71.5-38.4-153.2-85.6-147.6-179.9,5.7-95.8,84.9-120.2,161.7-147.3,146.3-51.5,301-80.9,444.2-141.7,53.8-22.9,108.1-50.1,147.6-94.3,0,3,0,6.1,0,9.1Z"/>
  <path class="st1" d="M929,25.8c116,76.8,233,158.3,312,275.3,2.2,3.3,2.4,7.1,8,6.8,0,4.5,0,9.1,0,13.7-34.6-52.8-75.9-100-122.5-142.2-59-53.4-131-104.5-198.3-147.1-2.9-1.8-7.3-.7-6-6.4h6.8Z"/>
  <path class="st3" d="M951.7,412.6c.3-.9,2.2-1.8,2.3-2.3l-2.3,2.3Z"/>
  <path class="st3" d="M575,1946.1c-46.6,5.7-89.1,4.6-136.2,4.6-1.1-7-.1-5.5,4.5-7.9,102.5-54.3,240.7-53.5,329.1-134.2,29-26.5,64.4-78.6,72.6-117.2,3.5,2.3,2.6,8.9,2.4,12.6-3.5,70.4-56.2,146.5-115.2,182.6-48.3,29.5-104.8,40-157.3,59.6Z"/>
  <path class="st3" d="M502.4,995c5.8,6.9,6.7,16.1,10.9,24.3,24.3,47,75.8,75.6,120.6,99.7,67.6,36.4,135.6,65.4,200.6,96.9,150.2,72.8,295.1,159.3,414.4,277.3,0,12.1,0,24.3,0,36.4-18.9-11-33.7-30.1-49.9-44.4-176.1-156.4-360.1-222.8-560.6-332.1-63.9-34.9-135.8-76.4-136.1-158.2Z"/>
  <path class="st3" d="M940.3,25.8c115,75.6,231.2,156.7,308.6,273,0,3,0,6.1,0,9.1-5.6.3-5.8-3.5-8-6.8-79-117-195.9-198.6-312-275.3h11.3Z"/>
</svg>